<svg xmlns="http://www.w3.org/2000/svg" viewBox="0 0 240 240" role="img" aria-labelledby="title desc">
  <title id="title">Avatar Ketua Umum</title>
  <desc id="desc">Ilustrasi avatar pemimpin organisasi dengan jas formal.</desc>
  <rect width="240" height="240" rx="120" fill="#e7f2f6"/>
  <circle cx="120" cy="86" r="42" fill="#f2c7a5"/>
  <path d="M74 207c8-49 28-75 46-75s38 26 46 75H74z" fill="#053f5c"/>
  <path d="M95 140l25 33 25-33 20 67H75l20-67z" fill="#ffffff"/>
  <path d="M88 82c4-29 25-48 56-35 20 8 29 29 22 53-16-7-28-18-36-31-11 15-25 24-42 27v-14z" fill="#17324d"/>
  <path d="M97 153l23 20 23-20 10 54H87l10-54z" fill="#0b4f71"/>
</svg>
